<?xml version="1.0" standalone="no"?>
<!DOCTYPE svg PUBLIC "-//W3C//DTD SVG 20010904//EN"
 "http://www.w3.org/TR/2001/REC-SVG-20010904/DTD/svg10.dtd">
<svg version="1.0" xmlns="http://www.w3.org/2000/svg"
 width="203.000000pt" height="100.000000pt" viewBox="0 0 203.000000 100.000000"
 preserveAspectRatio="xMidYMid meet">

<g transform="translate(0.000000,100.000000) scale(0.100000,-0.100000)"
fill="#000000" stroke="none">
<path d="M0 500 l0 -500 1015 0 1015 0 0 500 0 500 -1015 0 -1015 0 0 -500z
m1494 414 c19 -18 21 -45 4 -39 -9 4 -13 -5 -13 -25 0 -25 2 -28 11 -15 14 18
34 20 34 3 0 -10 3 -9 9 1 6 9 18 12 37 7 37 -9 96 -54 89 -67 -4 -5 1 -9 10
-9 9 0 14 -4 11 -9 -3 -5 2 -15 11 -22 33 -28 82 -176 66 -202 -7 -12 -8 -20
-11 -109 -2 -59 -10 -69 -35 -44 -8 8 -19 11 -27 6 -10 -6 -7 -12 9 -26 13
-11 38 -48 57 -84 19 -36 40 -73 46 -82 10 -14 8 -20 -13 -37 -49 -41 -90 -39
-51 2 12 13 22 29 22 36 0 7 -27 46 -60 86 -33 40 -60 81 -60 91 0 24 -29 54
-52 54 -19 0 -24 15 -8 25 6 3 10 12 9 18 0 9 -2 9 -6 0 -2 -7 -11 -13 -19
-13 -7 0 -20 -12 -28 -27 -8 -16 -26 -39 -40 -52 -18 -17 -26 -35 -26 -59 0
-19 -7 -58 -16 -87 -8 -30 -14 -62 -12 -72 3 -16 -5 -18 -57 -20 l-60 -2 42
20 41 19 7 97 c6 84 12 109 42 171 20 40 34 74 32 76 -2 2 -15 9 -29 16 -24
13 -25 12 -7 -7 9 -11 17 -26 17 -34 -1 -13 -23 9 -54 53 -12 16 -18 17 -82 3
-39 -8 -70 -10 -72 -5 -2 5 -10 6 -19 3 -11 -4 -14 -2 -9 5 4 7 14 12 23 12
16 0 85 47 91 62 2 4 9 8 15 8 26 0 77 62 88 105 6 25 15 45 20 45 5 0 9 5 9
11 0 6 -7 9 -14 6 -10 -4 -13 -1 -9 9 3 8 -1 14 -8 14 -11 0 -11 3 1 10 14 9
11 12 -19 14 -25 2 -23 24 3 51 29 29 39 31 60 9z m-1420 -20 c3 -8 2 -12 -4
-9 -6 3 -10 10 -10 16 0 14 7 11 14 -7z m76 -17 c0 -5 -4 -5 -10 -2 -5 3 -10
14 -10 23 0 15 2 15 10 2 5 -8 10 -19 10 -23z m17 1 c-3 -7 -5 -2 -5 12 0 14
2 19 5 13 2 -7 2 -19 0 -25z m30 0 c-3 -7 -5 -2 -5 12 0 14 2 19 5 13 2 -7 2
-19 0 -25z m70 0 c-3 -7 -5 -2 -5 12 0 14 2 19 5 13 2 -7 2 -19 0 -25z m70 0
c-3 -7 -5 -2 -5 12 0 14 2 19 5 13 2 -7 2 -19 0 -25z m153 4 c0 -15 -2 -15
-10 -2 -13 20 -13 33 0 25 6 -3 10 -14 10 -23z m50 -8 c0 -3 -7 -1 -15 6 -8 7
-15 17 -15 22 0 5 7 3 15 -6 8 -8 15 -18 15 -22z m67 4 c-3 -7 -5 -2 -5 12 0
14 2 19 5 13 2 -7 2 -19 0 -25z m30 0 c-3 -7 -5 -2 -5 12 0 14 2 19 5 13 2 -7
2 -19 0 -25z m20 0 c-3 -7 -5 -2 -5 12 0 14 2 19 5 13 2 -7 2 -19 0 -25z m53
-3 c0 -5 -5 -3 -10 5 -5 8 -10 20 -10 25 0 6 5 3 10 -5 5 -8 10 -19 10 -25z
m17 3 c-3 -7 -5 -2 -5 12 0 14 2 19 5 13 2 -7 2 -19 0 -25z m120 0 c-3 -7 -5
-2 -5 12 0 14 2 19 5 13 2 -7 2 -19 0 -25z m99 -6 c-6 -5 -36 23 -36 34 0 4 9
-1 20 -11 11 -10 18 -20 16 -23z m-706 13 c0 -8 -2 -15 -4 -15 -2 0 -6 7 -10
15 -3 8 -1 15 4 15 6 0 10 -7 10 -15z m80 -6 c0 -6 -4 -7 -10 -4 -5 3 -10 11
-10 16 0 6 5 7 10 4 6 -3 10 -11 10 -16z m64 6 c3 -8 1 -15 -3 -15 -5 0 -11 7
-15 15 -3 8 -1 15 3 15 5 0 11 -7 15 -15z m33 -7 c-3 -8 -6 -5 -6 6 -1 11 2
17 5 13 3 -3 4 -12 1 -19z m147 7 c3 -8 1 -15 -4 -15 -6 0 -10 7 -10 15 0 8 2
15 4 15 2 0 6 -7 10 -15z m303 -7 c-3 -8 -6 -5 -6 6 -1 11 2 17 5 13 3 -3 4
-12 1 -19z m171 -145 c-179 -2 -476 -2 -660 0 -183 1 -36 2 327 2 363 0 513
-1 333 -2z m880 0 c-32 -2 -86 -2 -120 0 -35 2 -9 3 57 3 66 0 94 -1 63 -3z
m-1607 -47 c5 3 9 1 9 -4 0 -6 -7 -12 -15 -16 -11 -4 -15 1 -14 17 0 12 3 16
6 9 2 -6 9 -10 14 -6z m99 -2 c0 -8 -5 -12 -10 -9 -6 4 -8 11 -5 16 9 14 15
11 15 -7z m-50 -10 c0 -8 -5 -12 -10 -9 -6 4 -8 11 -5 16 9 14 15 11 15 -7z
m87 -4 c3 -11 9 -17 14 -15 4 3 5 13 2 22 -4 11 -3 14 5 9 19 -12 14 -43 -8
-49 -11 -3 -18 -1 -14 4 3 5 0 9 -5 9 -6 0 -11 -4 -11 -10 0 -5 -7 -10 -15
-10 -21 0 -19 13 5 30 14 10 16 16 7 22 -9 6 -9 8 1 8 8 0 16 -9 19 -20z m313
-10 c9 -17 4 -49 -10 -60 -9 -8 -40 -59 -40 -67 0 -4 7 3 16 15 22 32 42 27
61 -13 11 -23 26 -38 43 -41 14 -3 32 -8 40 -11 8 -4 20 -5 25 -4 6 2 73 16
150 32 137 28 184 35 173 23 -7 -6 -161 -40 -253 -55 -33 -6 -68 -14 -78 -20
-10 -5 -22 -7 -27 -4 -4 3 -20 1 -34 -5 -17 -6 -26 -6 -26 0 0 6 7 10 15 10 8
0 15 5 15 10 0 6 -7 10 -15 10 -21 0 -38 -36 -27 -57 11 -20 27 -102 24 -119
-1 -6 20 -32 47 -57 39 -37 48 -50 44 -71 -3 -14 -11 -31 -19 -37 -15 -12 -17
-8 -14 32 1 21 -9 35 -49 65 -28 22 -50 45 -51 52 0 6 -9 12 -20 12 -11 0 -20
5 -20 11 0 8 -4 8 -14 0 -7 -6 -20 -9 -29 -6 -12 5 -17 -6 -23 -57 -5 -35 -8
-70 -7 -79 2 -11 -8 -15 -32 -16 -19 -1 -38 3 -41 8 -3 5 1 9 9 9 24 0 35 22
39 86 3 41 13 75 28 100 22 35 22 37 4 30 -33 -14 -127 -46 -133 -46 -18 0 24
21 79 39 l65 21 2 54 c1 30 9 68 17 85 20 37 20 41 2 41 -17 0 -29 44 -21 71
7 22 42 39 63 32 7 -3 17 -13 22 -23z m-664 -7 c-17 -36 -35 -28 -21 10 3 7
12 14 19 14 10 0 10 -6 2 -24z m32 2 c-6 -14 -13 -24 -14 -22 -6 6 9 47 17 47
5 0 3 -11 -3 -25z m91 -2 c0 -24 -2 -25 -8 -8 -8 19 -8 19 -19 0 -11 -19 -11
-19 -12 2 0 19 11 30 33 32 4 1 7 -11 6 -26z m297 -11 c-8 -9 -19 -13 -22 -9
-4 4 1 15 12 26 23 22 33 6 10 -17z m-352 3 c-4 -8 -8 -15 -10 -15 -2 0 -4 7
-4 15 0 8 4 15 10 15 5 0 7 -7 4 -15z m121 5 c5 -8 12 -7 23 2 13 11 14 11 10
-2 -2 -8 -15 -17 -27 -18 -17 -3 -21 0 -15 9 5 9 2 10 -10 6 -10 -4 -15 -3
-11 3 8 13 22 13 30 0z m70 -10 c3 -5 -1 -10 -10 -10 -9 0 -13 5 -10 10 3 6 8
10 10 10 2 0 7 -4 10 -10z m-116 -82 c0 -21 -1 -21 -8 -4 -7 19 -8 19 -15 1
-6 -16 -9 -17 -16 -5 -6 9 -5 17 3 22 22 14 37 8 36 -14z m91 1 c0 -4 -7 -6
-16 -2 -9 3 -19 0 -24 -6 -5 -9 -9 -8 -13 4 -4 9 -3 13 2 10 5 -3 12 -1 16 4
6 11 35 3 35 -10z m-220 -7 c0 -15 -2 -15 -11 -2 -8 11 -12 12 -16 2 -2 -6 -9
-10 -14 -6 -16 10 -9 20 16 22 18 1 25 -3 25 -16z m60 14 c0 -9 -30 -14 -35
-6 -4 6 3 10 14 10 12 0 21 -2 21 -4z m247 -11 c0 -10 -4 -12 -13 -4 -8 7 -13
6 -17 -3 -2 -7 -8 -10 -12 -6 -11 10 4 28 24 28 10 0 18 -7 18 -15z m38 5 c-3
-5 -10 -10 -16 -10 -5 0 -9 5 -9 10 0 6 7 10 16 10 8 0 12 -4 9 -10z m-388
-92 c-3 -8 -6 -5 -6 6 -1 11 2 17 5 13 3 -3 4 -12 1 -19z m111 -3 c-3 -3 -26
-6 -51 -8 -56 -3 -49 10 8 15 42 3 52 2 43 -7z m91 -7 c0 -13 -3 -17 -6 -10
-2 6 -9 10 -14 6 -5 -3 -9 -1 -9 5 0 8 9 14 28 20 1 1 2 -9 1 -21z m41 16 c0
-3 -7 -12 -15 -20 -12 -13 -15 -13 -15 -1 0 7 3 17 7 20 8 8 23 9 23 1z m152
-6 c15 1 28 -2 28 -7 0 -16 -18 -22 -23 -9 -4 10 -8 9 -16 -2 -7 -10 -11 -11
-11 -2 0 6 -9 12 -21 12 -11 0 -17 5 -14 10 4 6 12 7 18 3 6 -4 24 -6 39 -5z
m71 -14 c-3 -9 -9 -12 -12 -7 -3 4 -10 11 -15 16 -5 4 0 7 12 7 15 0 20 -4 15
-16z m960 -371 c-266 -2 -700 -2 -965 0 -266 1 -49 2 482 2 531 0 748 -1 483
-2z"/>
<path d="M1509 693 c-13 -16 -12 -17 4 -4 16 13 21 21 13 21 -2 0 -10 -8 -17
-17z"/>
<path d="M1603 697 c-4 -8 -15 -17 -23 -20 -10 -4 -8 -6 6 -6 12 -1 25 6 28
15 8 22 0 30 -11 11z"/>
<path d="M1535 670 c-3 -5 -13 -7 -23 -4 -10 4 -13 2 -7 -3 6 -4 13 -12 16
-16 3 -4 14 2 24 13 10 11 13 20 7 20 -6 0 -13 -4 -17 -10z"/>
<path d="M1623 657 c0 -8 6 -14 14 -14 9 0 10 4 2 14 -6 7 -12 13 -14 13 -1 0
-2 -6 -2 -13z"/>
<path d="M1561 643 c-1 -24 14 -39 24 -23 4 6 11 8 16 5 5 -4 9 -1 9 6 0 6 -8
9 -19 6 -13 -3 -21 1 -24 12 -3 11 -5 9 -6 -6z"/>
<path d="M1401 616 c2 -2 15 -9 29 -16 23 -12 24 -12 11 3 -7 10 -20 17 -29
17 -8 0 -13 -2 -11 -4z"/>
<path d="M1700 615 c0 -5 5 -17 10 -25 5 -8 10 -10 10 -5 0 6 -5 17 -10 25 -5
8 -10 11 -10 5z"/>
<path d="M1510 600 c0 -5 5 -10 10 -10 6 0 10 5 10 10 0 6 -4 10 -10 10 -5 0
-10 -4 -10 -10z"/>
<path d="M1542 590 c0 -14 2 -19 5 -12 2 6 2 18 0 25 -3 6 -5 1 -5 -13z"/>
<path d="M1630 501 c0 -6 4 -13 10 -16 6 -3 7 1 4 9 -7 18 -14 21 -14 7z"/>
<path d="M1701 484 c0 -11 3 -14 6 -6 3 7 2 16 -1 19 -3 4 -6 -2 -5 -13z"/>
<path d="M723 632 c-7 -4 -8 -13 -4 -20 6 -10 10 -10 20 2 13 16 2 29 -16 18z"/>
<path d="M702 480 c0 -14 2 -19 5 -12 2 6 2 18 0 25 -3 6 -5 1 -5 -13z"/>
<path d="M746 443 c-6 -14 -5 -15 5 -6 7 7 10 15 7 18 -3 3 -9 -2 -12 -12z"/>
<path d="M712 408 c3 -7 13 -15 24 -17 16 -3 17 -1 5 13 -16 19 -34 21 -29 4z"/>
</g>
</svg>
