<svg width="930" height="83" viewBox="0 0 930 83" fill="none" xmlns="http://www.w3.org/2000/svg">
<g filter="url(#filter0_d)">
<path d="M20.88 54.184H26.352V21.28H20.88V17.464H34.632L47.88 45.904L60.48 17.464H74.448V21.28H68.976V54.184H74.448V58H58.104V54.184H63.36V22.288L48.096 55.912H46.224L30.744 22.288V54.184H36V58H20.88V54.184ZM123.352 37.552V39.712C123.352 45.568 121.576 50.2 118.024 53.608C114.472 57.016 109.456 58.72 102.976 58.72C98.3678 58.72 94.3838 57.832 91.0238 56.056C87.7118 54.28 85.1678 51.808 83.3918 48.64C81.6638 45.424 80.7998 41.752 80.7998 37.624C80.7998 33.496 81.7358 29.848 83.6078 26.68C85.4798 23.512 88.0718 21.064 91.3838 19.336C94.7438 17.608 98.5598 16.744 102.832 16.744C105.856 16.744 108.544 17.248 110.896 18.256C113.248 19.264 115.192 20.704 116.728 22.576V17.464H121.408V29.992H117.232C115.936 27.112 114.064 24.904 111.616 23.368C109.168 21.784 106.312 20.992 103.048 20.992C98.1518 20.992 94.2638 22.456 91.3838 25.384C88.5518 28.312 87.1358 32.272 87.1358 37.264C87.1358 42.544 88.5758 46.72 91.4558 49.792C94.3358 52.864 98.2478 54.4 103.192 54.4C107.416 54.304 110.848 53.2 113.488 51.088C116.128 48.976 117.496 45.808 117.592 41.584H109.024V37.552H123.352ZM129.443 54.184H134.915V21.28H129.443V17.464H143.195L156.443 45.904L169.043 17.464H183.011V21.28H177.539V54.184H183.011V58H166.667V54.184H171.923V22.288L156.659 55.912H154.787L139.307 22.288V54.184H144.562V58H129.443V54.184ZM210.652 54.184H216.268V21.28H210.652V17.464H245.284V29.776H240.748V21.28H222.172V34.888H234.412V30.496H237.436V43.672H234.412V38.992H222.172V54.184H227.788V58H210.652V54.184ZM250.467 54.184H256.083V21.28H250.467V17.464H267.675V21.28H261.987V54.184H267.675V58H250.467V54.184ZM274.074 54.184H279.69V21.28H274.074V17.464H295.386C299.706 17.464 303.066 18.376 305.466 20.2C307.914 21.976 309.138 24.592 309.138 28.048C309.138 34.192 305.658 37.792 298.698 38.848L307.986 54.184H313.962V58H303.954L293.082 39.424H288.114V35.464H294.45C297.666 35.464 299.946 34.768 301.29 33.376C302.634 31.936 303.306 30.184 303.306 28.12C303.306 26.104 302.634 24.472 301.29 23.224C299.994 21.928 298.05 21.28 295.458 21.28H285.594V54.184H291.21V58H274.074V54.184ZM336.364 34.672C341.356 35.536 344.932 36.856 347.092 38.632C349.3 40.36 350.404 43.096 350.404 46.84C350.404 49 349.9 50.992 348.892 52.816C347.884 54.592 346.396 56.032 344.428 57.136C342.46 58.192 340.132 58.72 337.444 58.72C334.948 58.72 332.668 58.216 330.604 57.208C328.588 56.2 326.932 54.808 325.636 53.032V58H320.956V44.32H325.276C325.564 47.344 326.764 49.816 328.876 51.736C331.036 53.608 333.82 54.544 337.228 54.544C339.724 54.544 341.668 53.944 343.06 52.744C344.452 51.544 345.148 49.864 345.148 47.704C345.148 45.976 344.836 44.632 344.212 43.672C343.588 42.664 342.58 41.896 341.188 41.368C339.844 40.792 337.9 40.288 335.356 39.856L333.628 39.568C329.548 38.896 326.38 37.6 324.124 35.68C321.868 33.712 320.74 31.072 320.74 27.76C320.74 24.256 321.892 21.544 324.196 19.624C326.5 17.656 329.596 16.672 333.484 16.672C335.692 16.672 337.684 17.056 339.46 17.824C341.284 18.544 342.748 19.6 343.852 20.992V17.464H348.46V28.912H344.212C343.3 23.536 339.82 20.848 333.772 20.848C331.324 20.848 329.404 21.424 328.012 22.576C326.668 23.728 325.996 25.264 325.996 27.184C325.996 29.2 326.716 30.784 328.156 31.936C329.596 33.04 331.78 33.856 334.708 34.384L336.364 34.672ZM365.125 54.184H370.741V21.28H359.653V31.576H355.261V17.464H391.837V31.576H387.445V21.28H376.573V54.184H382.189V58H365.125V54.184ZM436.137 34.672C441.129 35.536 444.705 36.856 446.865 38.632C449.073 40.36 450.177 43.096 450.177 46.84C450.177 49 449.673 50.992 448.665 52.816C447.657 54.592 446.169 56.032 444.201 57.136C442.233 58.192 439.905 58.72 437.217 58.72C434.721 58.72 432.441 58.216 430.377 57.208C428.361 56.2 426.705 54.808 425.409 53.032V58H420.729V44.32H425.049C425.337 47.344 426.537 49.816 428.649 51.736C430.809 53.608 433.593 54.544 437.001 54.544C439.497 54.544 441.441 53.944 442.833 52.744C444.225 51.544 444.921 49.864 444.921 47.704C444.921 45.976 444.609 44.632 443.985 43.672C443.361 42.664 442.353 41.896 440.961 41.368C439.617 40.792 437.673 40.288 435.129 39.856L433.401 39.568C429.321 38.896 426.153 37.6 423.897 35.68C421.641 33.712 420.513 31.072 420.513 27.76C420.513 24.256 421.665 21.544 423.969 19.624C426.273 17.656 429.369 16.672 433.257 16.672C435.465 16.672 437.457 17.056 439.233 17.824C441.057 18.544 442.521 19.6 443.625 20.992V17.464H448.233V28.912H443.985C443.073 23.536 439.593 20.848 433.545 20.848C431.097 20.848 429.177 21.424 427.785 22.576C426.441 23.728 425.769 25.264 425.769 27.184C425.769 29.2 426.489 30.784 427.929 31.936C429.369 33.04 431.553 33.856 434.481 34.384L436.137 34.672ZM464.898 54.184H470.514V21.28H459.426V31.576H455.034V17.464H491.61V31.576H487.218V21.28H476.346V54.184H481.962V58H464.898V54.184ZM496.261 54.184H501.877V21.28H496.261V17.464H531.541V29.488H527.005V21.28H507.781V35.032H520.381V30.28H523.333V43.816H520.381V38.992H507.781V54.184H527.365V45.76H531.901V58H496.261V54.184ZM538.167 54.184H543.783V21.28H538.167V17.464H558.183C563.127 17.464 566.895 18.448 569.487 20.416C572.079 22.384 573.375 25.24 573.375 28.984C573.375 32.968 572.031 36.016 569.343 38.128C566.703 40.192 562.863 41.224 557.823 41.224H552.423V37.408H557.607C560.727 37.408 563.127 36.688 564.807 35.248C566.487 33.808 567.327 31.744 567.327 29.056C567.327 26.56 566.583 24.64 565.095 23.296C563.655 21.952 561.567 21.28 558.831 21.28H549.687V54.184H555.303V58H538.167V54.184ZM596.45 34.672C601.442 35.536 605.018 36.856 607.178 38.632C609.386 40.36 610.49 43.096 610.49 46.84C610.49 49 609.986 50.992 608.978 52.816C607.97 54.592 606.482 56.032 604.514 57.136C602.546 58.192 600.218 58.72 597.53 58.72C595.034 58.72 592.754 58.216 590.69 57.208C588.674 56.2 587.018 54.808 585.722 53.032V58H581.042V44.32H585.362C585.65 47.344 586.85 49.816 588.962 51.736C591.122 53.608 593.906 54.544 597.314 54.544C599.81 54.544 601.754 53.944 603.146 52.744C604.538 51.544 605.234 49.864 605.234 47.704C605.234 45.976 604.922 44.632 604.298 43.672C603.674 42.664 602.666 41.896 601.274 41.368C599.93 40.792 597.986 40.288 595.442 39.856L593.714 39.568C589.634 38.896 586.466 37.6 584.21 35.68C581.954 33.712 580.826 31.072 580.826 27.76C580.826 24.256 581.978 21.544 584.282 19.624C586.586 17.656 589.682 16.672 593.57 16.672C595.778 16.672 597.77 17.056 599.546 17.824C601.37 18.544 602.834 19.6 603.938 20.992V17.464H608.546V28.912H604.298C603.386 23.536 599.906 20.848 593.858 20.848C591.41 20.848 589.49 21.424 588.098 22.576C586.754 23.728 586.082 25.264 586.082 27.184C586.082 29.2 586.802 30.784 588.242 31.936C589.682 33.04 591.866 33.856 594.794 34.384L596.45 34.672ZM656.004 34.672C660.996 35.536 664.572 36.856 666.732 38.632C668.94 40.36 670.044 43.096 670.044 46.84C670.044 49 669.54 50.992 668.532 52.816C667.524 54.592 666.036 56.032 664.068 57.136C662.1 58.192 659.772 58.72 657.084 58.72C654.588 58.72 652.308 58.216 650.244 57.208C648.228 56.2 646.572 54.808 645.276 53.032V58H640.596V44.32H644.916C645.204 47.344 646.404 49.816 648.516 51.736C650.676 53.608 653.46 54.544 656.868 54.544C659.364 54.544 661.308 53.944 662.7 52.744C664.092 51.544 664.788 49.864 664.788 47.704C664.788 45.976 664.476 44.632 663.852 43.672C663.228 42.664 662.22 41.896 660.828 41.368C659.484 40.792 657.54 40.288 654.996 39.856L653.268 39.568C649.188 38.896 646.02 37.6 643.764 35.68C641.508 33.712 640.38 31.072 640.38 27.76C640.38 24.256 641.532 21.544 643.836 19.624C646.14 17.656 649.236 16.672 653.124 16.672C655.332 16.672 657.324 17.056 659.1 17.824C660.924 18.544 662.388 19.6 663.492 20.992V17.464H668.1V28.912H663.852C662.94 23.536 659.46 20.848 653.412 20.848C650.964 20.848 649.044 21.424 647.652 22.576C646.308 23.728 645.636 25.264 645.636 27.184C645.636 29.2 646.356 30.784 647.796 31.936C649.236 33.04 651.42 33.856 654.348 34.384L656.004 34.672ZM716.878 47.056C713.854 54.784 707.518 58.696 697.87 58.792C693.694 58.792 689.998 57.904 686.782 56.128C683.566 54.304 681.07 51.808 679.294 48.64C677.518 45.472 676.63 41.824 676.63 37.696C676.63 33.664 677.494 30.064 679.222 26.896C680.998 23.728 683.494 21.256 686.71 19.48C689.974 17.656 693.718 16.744 697.942 16.744C700.966 16.744 703.678 17.32 706.078 18.472C708.478 19.576 710.35 21.112 711.694 23.08V17.464H716.014V29.704L712.126 29.848C710.638 26.776 708.766 24.544 706.51 23.152C704.254 21.76 701.494 21.064 698.23 21.064C695.11 21.064 692.35 21.808 689.95 23.296C687.598 24.736 685.774 26.704 684.478 29.2C683.182 31.696 682.534 34.504 682.534 37.624C682.534 40.984 683.206 43.936 684.55 46.48C685.894 49.024 687.766 50.992 690.166 52.384C692.566 53.776 695.254 54.472 698.23 54.472C701.494 54.472 704.398 53.704 706.942 52.168C709.534 50.632 711.406 48.208 712.558 44.896L716.878 47.056ZM723.792 54.184H729.408V21.28H723.792V17.464H740.928V21.28H735.312V35.104H756.912V21.28H751.224V17.464H768.36V21.28H762.744V54.184H768.36V58H751.224V54.184H756.912V39.208H735.312V54.184H740.928V58H723.792V54.184ZM796.676 58.792C792.355 58.792 788.516 57.856 785.156 55.984C781.844 54.064 779.276 51.52 777.452 48.352C775.628 45.136 774.716 41.632 774.716 37.84C774.716 34.048 775.628 30.544 777.452 27.328C779.276 24.064 781.844 21.496 785.156 19.624C788.516 17.704 792.355 16.744 796.676 16.744C800.996 16.744 804.812 17.704 808.124 19.624C811.484 21.496 814.076 24.064 815.9 27.328C817.724 30.544 818.636 34.048 818.636 37.84C818.636 41.632 817.724 45.136 815.9 48.352C814.076 51.52 811.484 54.064 808.124 55.984C804.812 57.856 800.996 58.792 796.676 58.792ZM796.676 54.472C799.892 54.472 802.676 53.728 805.028 52.24C807.38 50.752 809.18 48.76 810.428 46.264C811.724 43.72 812.372 40.912 812.372 37.84C812.372 34.72 811.724 31.888 810.428 29.344C809.18 26.8 807.38 24.784 805.028 23.296C802.676 21.76 799.892 20.992 796.676 20.992C793.46 20.992 790.676 21.76 788.324 23.296C785.972 24.784 784.172 26.824 782.924 29.416C781.676 31.96 781.052 34.792 781.052 37.912C781.052 41.032 781.676 43.84 782.924 46.336C784.172 48.832 785.972 50.824 788.324 52.312C790.676 53.752 793.46 54.472 796.676 54.472ZM847.722 58.792C843.402 58.792 839.562 57.856 836.202 55.984C832.89 54.064 830.322 51.52 828.498 48.352C826.674 45.136 825.762 41.632 825.762 37.84C825.762 34.048 826.674 30.544 828.498 27.328C830.322 24.064 832.89 21.496 836.202 19.624C839.562 17.704 843.402 16.744 847.722 16.744C852.042 16.744 855.858 17.704 859.17 19.624C862.53 21.496 865.122 24.064 866.946 27.328C868.77 30.544 869.682 34.048 869.682 37.84C869.682 41.632 868.77 45.136 866.946 48.352C865.122 51.52 862.53 54.064 859.17 55.984C855.858 57.856 852.042 58.792 847.722 58.792ZM847.722 54.472C850.938 54.472 853.722 53.728 856.074 52.24C858.426 50.752 860.226 48.76 861.474 46.264C862.77 43.72 863.418 40.912 863.418 37.84C863.418 34.72 862.77 31.888 861.474 29.344C860.226 26.8 858.426 24.784 856.074 23.296C853.722 21.76 850.938 20.992 847.722 20.992C844.506 20.992 841.722 21.76 839.37 23.296C837.018 24.784 835.218 26.824 833.97 29.416C832.722 31.96 832.098 34.792 832.098 37.912C832.098 41.032 832.722 43.84 833.97 46.336C835.218 48.832 837.018 50.824 839.37 52.312C841.722 53.752 844.506 54.472 847.722 54.472ZM876.089 54.184H881.705V21.28H876.089V17.464H893.225V21.28H887.609V54.184H904.457V41.728H909.209V58H876.089V54.184Z" fill="#540002"/>
</g>
<defs>
<filter id="filter0_d" x="0.880005" y="0.671997" width="928.329" height="82.12" filterUnits="userSpaceOnUse" color-interpolation-filters="sRGB">
<feFlood flood-opacity="0" result="BackgroundImageFix"/>
<feColorMatrix in="SourceAlpha" type="matrix" values="0 0 0 0 0 0 0 0 0 0 0 0 0 0 0 0 0 0 127 0"/>
<feOffset dy="4"/>
<feGaussianBlur stdDeviation="10"/>
<feColorMatrix type="matrix" values="0 0 0 0 0 0 0 0 0 0 0 0 0 0 0 0 0 0 0.4 0"/>
<feBlend mode="normal" in2="BackgroundImageFix" result="effect1_dropShadow"/>
<feBlend mode="normal" in="SourceGraphic" in2="effect1_dropShadow" result="shape"/>
</filter>
</defs>
</svg>
