<?xml version="1.0" standalone="no"?>
<!DOCTYPE svg PUBLIC "-//W3C//DTD SVG 20010904//EN"
 "http://www.w3.org/TR/2001/REC-SVG-20010904/DTD/svg10.dtd">
<svg version="1.0" xmlns="http://www.w3.org/2000/svg"
 width="203.000000pt" height="100.000000pt" viewBox="0 0 203.000000 100.000000"
 preserveAspectRatio="xMidYMid meet">
<metadata>
Created by potrace 1.16, written by Peter Selinger 2001-2019
</metadata>
<g transform="translate(0.000000,100.000000) scale(0.100000,-0.100000)"
fill="#000000" stroke="none">
<path d="M0 500 l0 -500 1015 0 1015 0 0 500 0 500 -1015 0 -1015 0 0 -500z
m1494 414 c19 -18 21 -45 4 -39 -9 4 -13 -5 -13 -25 0 -25 2 -28 11 -15 14 18
34 20 34 3 0 -10 3 -9 9 1 6 9 18 12 37 7 37 -9 96 -54 89 -67 -4 -5 1 -9 10
-9 9 0 14 -4 11 -9 -3 -5 2 -15 11 -22 33 -28 82 -176 66 -202 -7 -12 -8 -20
-11 -109 -2 -59 -10 -69 -35 -44 -8 8 -19 11 -27 6 -10 -6 -7 -12 9 -26 13
-11 38 -48 57 -84 19 -36 40 -73 46 -82 10 -14 8 -20 -13 -37 -49 -41 -90 -39
-51 2 12 13 22 29 22 36 0 7 -27 46 -60 86 -33 40 -60 81 -60 91 0 24 -29 54
-52 54 -19 0 -24 15 -8 25 6 3 10 12 9 18 0 9 -2 9 -6 0 -2 -7 -11 -13 -19
-13 -7 0 -20 -12 -28 -27 -8 -16 -26 -39 -40 -52 -18 -17 -26 -35 -26 -59 0
-19 -7 -58 -16 -87 -8 -30 -14 -62 -12 -72 3 -16 -5 -18 -57 -20 l-60 -2 42
20 41 19 7 97 c6 84 12 109 42 171 20 40 34 74 32 76 -2 2 -15 9 -29 16 -24
13 -25 12 -7 -7 9 -11 17 -26 17 -34 -1 -13 -23 9 -54 53 -12 16 -18 17 -82 3
-39 -8 -70 -10 -72 -5 -2 5 -10 6 -19 3 -11 -4 -14 -2 -9 5 4 7 14 12 23 12
16 0 85 47 91 62 2 4 9 8 15 8 26 0 77 62 88 105 6 25 15 45 20 45 5 0 9 5 9
11 0 6 -7 9 -14 6 -10 -4 -13 -1 -9 9 3 8 -1 14 -8 14 -11 0 -11 3 1 10 14 9
11 12 -19 14 -25 2 -23 24 3 51 29 29 39 31 60 9z m-734 -254 c9 -17 4 -49
-10 -60 -9 -8 -40 -59 -40 -67 0 -4 7 3 16 15 22 32 42 27 61 -13 11 -23 26
-38 43 -41 14 -3 32 -8 40 -11 8 -4 20 -5 25 -4 6 2 73 16 150 32 137 28 184
35 173 23 -7 -6 -161 -40 -253 -55 -33 -6 -68 -14 -78 -20 -10 -5 -22 -7 -27
-4 -4 3 -20 1 -34 -5 -17 -6 -26 -6 -26 0 0 6 7 10 15 10 8 0 15 5 15 10 0 6
-7 10 -15 10 -21 0 -38 -36 -27 -57 11 -20 27 -102 24 -119 -1 -6 20 -32 47
-57 39 -37 48 -50 44 -71 -3 -14 -11 -31 -19 -37 -15 -12 -17 -8 -14 32 1 21
-9 35 -49 65 -28 22 -50 45 -51 52 0 6 -9 12 -20 12 -11 0 -20 5 -20 11 0 8
-4 8 -14 0 -7 -6 -20 -9 -29 -6 -12 5 -17 -6 -23 -57 -5 -35 -8 -70 -7 -79 2
-11 -8 -15 -32 -16 -19 -1 -38 3 -41 8 -3 5 1 9 9 9 24 0 35 22 39 86 3 41 13
75 28 100 22 35 22 37 4 30 -33 -14 -127 -46 -133 -46 -18 0 24 21 79 39 l65
21 2 54 c1 30 9 68 17 85 20 37 20 41 2 41 -17 0 -29 44 -21 71 7 22 42 39 63
32 7 -3 17 -13 22 -23z m733 -577 c-266 -2 -700 -2 -965 0 -266 1 -49 2 482 2
531 0 748 -1 483 -2z"/>
</g>
</svg>
